<?xml version="1.0" encoding="utf-8"?>
<!-- Generator: Adobe Illustrator 21.0.2, SVG Export Plug-In . SVG Version: 6.00 Build 0)  -->
<svg version="1.1" id="Calque_1" xmlns="http://www.w3.org/2000/svg" xmlns:xlink="http://www.w3.org/1999/xlink" x="0px" y="0px"
	 height="200px" viewBox="0 0 393.5 364" style="enable-background:new 0 0 393.5 364;" xml:space="preserve">
<style type="text/css">
	.st0{fill:#74C15D;}
	.st1{fill:#E3118D;}
	.st2{fill:#15A7B2;}
	.st3{fill:#FFFFFF;}
	.st4{fill:none;stroke:#000000;stroke-width:2;stroke-miterlimit:10;}
	.st5{fill:none;}
	.st6{fill:#FCB216;}
	.st7{fill:#79C143;}
	.st8{fill:#BD8C2C;}
	.st9{fill:none;stroke:#F15523;stroke-width:3;stroke-miterlimit:10;}
	.st10{stroke:#000000;stroke-width:0.5;stroke-miterlimit:10;}
	.st11{fill:none;stroke:#2A5629;stroke-width:4;stroke-miterlimit:10;}
	.st12{opacity:0.46;}
	.st13{fill:#A94C25;}
	.st14{fill:none;stroke:#E2148D;stroke-width:2;stroke-miterlimit:10;}
	.st15{fill:#7ECBAF;}
	.st16{fill:#4E4E4E;}
	.st17{fill:#54BE94;}
	.st18{fill:#BCDB8F;}
	.st19{fill:#8BCB90;}
	.st20{fill:#3D9473;}
	.st21{fill:none;stroke:#FFFFFF;stroke-miterlimit:10;}
	.st22{fill:none;stroke:#E2148D;stroke-miterlimit:10;}
	.st23{fill:#E2148D;}
</style>
<path d="M240.6,161H122.6c-5.5,0-10-4.4-10.1-9.9c-0.1-5.6,4.7-10.2,10.3-10.2h107.8c20.1,0,36.4-16.4,36.2-36.6
	c-0.2-19.9-16.7-35.9-36.7-35.9H122.6c-5.5,0-10-4.4-10.1-9.9c-0.1-5.6,4.7-10.2,10.3-10.2h130.9c1.1,0,2.2-0.2,3.3-0.4
	c0,0,0.1,0,0.1,0c0.1,0,0.2-0.1,0.3-0.1c0.4-0.1,0.9-0.3,1.3-0.4c0.2-0.1,0.5-0.2,0.7-0.3c0.2-0.1,0.4-0.2,0.6-0.3
	c0.6-0.3,1.1-0.6,1.6-1c0.2-0.1,0.4-0.3,0.5-0.4c0.2-0.1,0.3-0.3,0.5-0.4c0.3-0.3,0.6-0.6,0.9-0.9h0v0c0.2-0.2,0.3-0.3,0.5-0.5h-0.1
	c2.2-2.9,2.7-6,2.7-6c0.1-0.7,0.2-1.4,0.2-2.1c0-7.2-5.9-13.1-13.1-13.1H123c-19.9,0-36.5,15.9-36.7,35.9
	c-0.2,20.1,16.1,36.6,36.2,36.6h108c5.5,0,10,4.4,10.1,9.9c0.1,5.6-4.7,10.2-10.3,10.2H122.6c-20.1,0-36.4,16.4-36.2,36.6
	c0.2,19.9,16.7,35.9,36.7,35.9h143.7C266.8,172.7,255.1,161,240.6,161z"/>
<circle class="st3" cx="247.4" cy="32.2" r="7.1"/>
<circle cx="250.3" cy="32.2" r="2.9"/>
<g>
	<path d="M122.2,252.5c0,6-4.2,9.6-11.2,9.6h-6.4v11.1h-6.4v-30.5h12.8C118,242.7,122.2,246.2,122.2,252.5z M115.7,252.4
		c0-3.1-1.8-4.7-5.7-4.7h-5.4v9.4h5.4C113.9,257.1,115.7,255.5,115.7,252.4z"/>
	<path d="M137.9,261.8v11.4h-6.4v-11.4l-10.8-19.1h6.8l4.9,9.1l2.3,4.8l2.4-4.8l4.9-9.1h6.7L137.9,261.8z"/>
	<path d="M162.3,273.6c-9.1,0-14.7-5.9-14.7-15.7c0-9.8,5.7-15.7,14.6-15.7c6.2,0,10.9,2.6,12.6,7.9l-5.8,2.4c-1-3.7-3-5.1-6.6-5.1
		c-5.1,0-8.3,3.7-8.3,10.5c0,6.7,3,10.5,8.1,10.5c3.6,0,6.1-1.8,7-5.4l5.9,1.8C173.4,270.7,168.5,273.6,162.3,273.6z"/>
	<path d="M206.2,257.9c0,9.8-5.6,15.7-14.6,15.7c-9.1,0-14.7-5.9-14.7-15.7c0-9.8,5.6-15.7,14.7-15.7
		C200.6,242.2,206.2,248.1,206.2,257.9z M183.5,257.9c0,6.8,3,10.5,8.1,10.5c5.1,0,8-3.7,8-10.5c0-6.8-3-10.5-8-10.5
		C186.4,247.4,183.5,251.1,183.5,257.9z"/>
	<path d="M236.5,273.2h-7.3l-10.7-17.9l-2.6-5.1h0l0.2,5.4v17.6h-5.7v-30.5h7.3l10.7,17.9l2.6,5.2h0.1l-0.2-5.4v-17.6h5.7V273.2z"/>
	<path d="M245.6,245.1v11.3H260v2.4h-14.4v14.3H243v-30.5h20.9v2.4H245.6z"/>
	<path d="M279.3,260.1h-8.7v13.1h-2.6v-30.5h11.4c6.1,0,10.1,3.3,10.1,8.7c0,4.5-2.7,7.5-7.1,8.4l8.8,13.4h-3.1L279.3,260.1z
		 M270.6,257.6h8.7c4.8,0,7.3-2.2,7.3-6.3c0-4.1-2.5-6.2-7.3-6.2h-8.7V257.6z"/>
</g>
<g>
	<g>
		<path class="st1" d="M98.3,312.3H91v18.1h-4.6v-18.1h-7.3v-3.7h19.2V312.3z"/>
		<path class="st1" d="M119.4,319.6c0,7-4,11.2-10.5,11.2c-6.5,0-10.5-4.2-10.5-11.2c0-7,4-11.2,10.5-11.2
			C115.4,308.4,119.4,312.6,119.4,319.6z M103.2,319.6c0,4.9,2.1,7.5,5.8,7.5c3.6,0,5.7-2.6,5.7-7.5c0-4.8-2.1-7.5-5.7-7.5
			C105.3,312.1,103.2,314.7,103.2,319.6z"/>
		<path class="st1" d="M140.6,321.9c0,5.9-3.2,8.9-9.3,8.9c-6.1,0-9.3-3-9.3-8.9v-13.2h4.6v13c0,3.7,1.6,5.4,4.8,5.4
			c3.2,0,4.7-1.7,4.7-5.4v-13h4.6V321.9z"/>
		<path class="st1" d="M160.3,326.8v3.7h-16v-21.8h4.6v18.1H160.3z"/>
		<path class="st1" d="M181.6,319.6c0,7-4,11.2-10.5,11.2c-6.5,0-10.5-4.2-10.5-11.2c0-7,4-11.2,10.5-11.2
			C177.6,308.4,181.6,312.6,181.6,319.6z M165.4,319.6c0,4.9,2.1,7.5,5.8,7.5c3.6,0,5.7-2.6,5.7-7.5c0-4.8-2.1-7.5-5.7-7.5
			C167.5,312.1,165.4,314.7,165.4,319.6z"/>
		<path class="st1" d="M202.8,321.9c0,5.9-3.2,8.9-9.3,8.9s-9.3-3-9.3-8.9v-13.2h4.6v13c0,3.7,1.6,5.4,4.8,5.4s4.7-1.7,4.7-5.4v-13
			h4.6V321.9z"/>
		<path class="st1" d="M223.5,312.5l-3.1,3.1c-1.1-2.3-2.9-3.5-5.9-3.5c-2.7,0-4.1,1.1-4.1,2.7c0,1.5,1.2,2.2,5,2.9
			c5.9,1.1,8.1,2.9,8.1,6.5c0,4.1-3.7,6.5-8.9,6.5c-4.9,0-7.8-1.4-9.6-4.1l2.7-3.2c1.7,2.8,3.8,3.6,6.7,3.6c2.8,0,4.3-0.9,4.3-2.6
			c0-1.2-1.2-1.9-4.8-2.6c-6.1-1.2-8.4-3.1-8.4-6.7c0-3.9,3.3-6.9,8.9-6.9C218.5,308.4,221.3,309.6,223.5,312.5z"/>
		<path class="st1" d="M242.8,326.8v3.7h-16.8v-21.8h16.3v3.7h-11.8v5.4h9.3v3.5h-9.3v5.5H242.8z"/>
		<path class="st1" d="M244.7,328.9c8.4-6.4,12-9.7,12-13.9c0-3-2-4.9-5.2-4.9c-3.3,0-5.4,2.3-5.7,5.8l-1.6-1c0.4-3.9,3-6.6,7.4-6.6
			c4.4,0,7.1,2.7,7.1,6.7c0,4.3-3.4,8-11.2,13.7v0c0.6,0,1.9-0.1,2.4-0.1h9.4v1.7h-14.6V328.9z"/>
		<path class="st1" d="M261.5,319.6c0-7.3,2.8-11.2,8-11.2c5.2,0,8,4,8,11.2s-2.8,11.2-8,11.2C264.3,330.8,261.5,326.8,261.5,319.6z
			 M275.5,319.6c0-6.2-2.1-9.5-6-9.5c-3.9,0-6,3.4-6,9.5c0,6.2,2.1,9.5,6,9.5C273.4,329.1,275.5,325.7,275.5,319.6z"/>
		<path class="st1" d="M287.1,308.7v21.8h-1.9v-16.4c0-0.9,0-1.9,0.1-2.9c-1.5,1.7-3.6,2.9-5.7,3.4l-0.5-1.7
			c1.8-0.4,5.2-2.3,6.4-4.3H287.1z"/>
		<path class="st1" d="M305.6,308.7v1.7c-5.4,5.7-7.9,12.2-8.2,20h-1.9c0.2-7.5,2.8-14.4,8-20h-13.7v-1.7H305.6z"/>
	</g>
</g>
<g>
	<g>
		<path class="st1" d="M330.6,350.5H53.2v-60.6h277.5V350.5z M55.4,348.3h273.1v-56.2H55.4V348.3z"/>
	</g>
</g>
<g>
	<path class="st1" d="M134.8,196h118.1c5.5,0,10-4.4,10.1-9.9c0.1-5.6-4.7-10.2-10.3-10.2H144.9c-20.1,0-36.4-16.4-36.2-36.6
		c0.2-19.9,16.7-35.9,36.7-35.9h107.5c5.5,0,10-4.4,10.1-9.9c0.1-5.6-4.7-10.2-10.3-10.2H121.7c-1.1,0-2.2-0.2-3.3-0.4
		c0,0-0.1,0-0.1,0c-0.1,0-0.2-0.1-0.3-0.1c-0.4-0.1-0.9-0.3-1.3-0.4c-0.2-0.1-0.5-0.2-0.7-0.3c-0.2-0.1-0.4-0.2-0.6-0.3
		c-0.6-0.3-1.1-0.6-1.6-1c-0.2-0.1-0.4-0.3-0.5-0.4c-0.2-0.1-0.3-0.3-0.5-0.4c-0.3-0.3-0.6-0.6-0.9-0.9h0v0
		c-0.2-0.2-0.3-0.3-0.5-0.5h0.1c-2.2-2.9-2.7-6-2.7-6c-0.1-0.7-0.2-1.4-0.2-2.1c0-7.2,5.9-13.1,13.1-13.1h130.7
		c19.9,0,36.5,15.9,36.7,35.9c0.2,20.1-16.1,36.6-36.2,36.6h-108c-5.5,0-10,4.4-10.1,9.9c-0.1,5.6,4.7,10.2,10.3,10.2h107.8
		c20.1,0,36.4,16.4,36.2,36.6c-0.2,19.9-16.7,35.9-36.7,35.9H108.7C108.7,207.7,120.4,196,134.8,196z"/>
	<circle class="st3" cx="128.1" cy="67.2" r="7.1"/>
	<circle class="st1" cx="125.2" cy="67.2" r="2.9"/>
</g>
</svg>
